<?xml version="1.0" encoding="UTF-8" standalone="no"?>
<svg width="120px" height="120px" viewBox="0 0 120 120" version="1.1" xmlns="http://www.w3.org/2000/svg" xmlns:xlink="http://www.w3.org/1999/xlink" xmlns:sketch="http://www.bohemiancoding.com/sketch/ns">
    <!-- Generator: Sketch 3.1.1 (8761) - http://www.bohemiancoding.com/sketch -->
    <title>Group</title>
    <desc>Created with Sketch.</desc>
    <defs></defs>
    <g id="Page-1" stroke="none" stroke-width="1" fill="none" fill-rule="evenodd" sketch:type="MSPage">
        <g id="Group" sketch:type="MSLayerGroup">
            <circle id="Oval-1" fill="#787878" sketch:type="MSShapeGroup" cx="60" cy="60" r="60"></circle>
            <g id="Path-3-+-Path-4" transform="translate(61.676937, 53.986923) rotate(11.000000) translate(-61.676937, -53.986923) translate(48.802294, 15.814628)" sketch:type="MSShapeGroup">
                <path d="M7.87343068,24.9127742 C7.8734307,15.8087834 4.47235275,13.6389171 3.31134097,12.2797781 C3.14100933,12.0803793 -2.32039637,7.79685415 1.31342125,2.91088201 C4.94723888,-1.97509013 10.3242056,0.541186274 11.823063,1.31307892 C12.1664818,1.48993525 12.6366887,1.57613636 13.1637985,1.59500678 C13.4737343,1.55018728 13.749455,1.47365713 13.9719542,1.35907288 C15.4708116,0.58718023 20.8477783,-1.92909617 24.4815959,2.95687597 C28.1154136,7.84284811 22.6540079,12.1263732 22.4836762,12.325772 C21.3226644,13.684911 17.9215865,15.8547773 17.9215865,24.9587681 C17.9215865,26.5151223 17.942159,36.7893822 17.9215873,38.195434 L7.94006495,38.195434 C7.91908914,36.7759646 7.87343068,26.48611 7.87343068,24.9127742 Z" id="Path-3" fill="#F0EFC6"></path>
                <path d="M7.82769917,63.0850692 C7.82769919,53.9810784 4.42662124,51.8112121 3.26560946,50.4520731 C3.09527782,50.2526743 -2.36612789,45.9691491 1.26768974,41.083177 C4.90150736,36.1972049 10.2784741,38.7134813 11.7773315,39.4853739 C12.1207503,39.6622302 12.5909572,39.7484314 13.118067,39.7673018 C13.4280028,39.7224823 13.7037235,39.6459521 13.9262226,39.5313679 C15.4250801,38.7594752 20.8020468,36.2431988 24.4358644,41.129171 C28.069682,46.0151431 22.6082763,50.2986682 22.4379447,50.498067 C21.2769329,51.857206 17.875855,54.0270723 17.875855,63.1310631 C17.875855,64.6874173 17.8964275,74.9616772 17.8758558,76.367729 L7.89433343,76.367729 C7.87335762,74.9482596 7.82769917,64.658405 7.82769917,63.0850692 Z" id="Path-4" fill="#8DFF9F" transform="translate(12.851777, 57.258442) scale(1, -1) translate(-12.851777, -57.258442) "></path>
            </g>
            <path d="M30.801876,74.6184941 L30.801876,49.316012 C30.801876,47.1246726 32.5787935,45.3478995 34.7707323,45.3478995 C34.7707323,45.3478995 52.5405472,47.5771762 60.5681043,47.5771762 C69.3086939,47.5771762 85.0751722,45.3478995 85.0751722,45.3478995 C87.267159,45.3478995 89.0440285,47.124484 89.0440285,49.316012 L89.0440285,74.6184941 C89.0440285,74.7180578 89.0403604,74.8167658 89.0331517,74.9144902 C89.0403872,75.1785203 89.0440285,75.4434479 89.0440285,75.709226 C89.0440285,91.4351945 76.2949233,104.185372 60.568105,104.185372 L59.2777996,104.185372 C43.5518604,104.185372 30.801876,91.4361673 30.801876,75.709226 C30.801876,75.4434569 30.8055173,75.1785378 30.8127526,74.9145157 C30.8055441,74.8167835 30.801876,74.7180671 30.801876,74.6184941 Z" id="Rectangle-2" fill="#BABABA" sketch:type="MSShapeGroup"></path>
            <path d="M30.9559715,46.466806 C30.9559715,44.2754666 32.732889,42.4986934 34.9248278,42.4986934 C34.9248278,42.4986934 52.6946427,44.7279701 60.7221998,44.7279701 C69.4627893,44.7279701 85.2292677,42.4986934 85.2292677,42.4986934 C87.4212545,42.4986934 89.198124,44.2752779 89.198124,46.466806 L89.198124,57.0517301 C85.229267,59.5994897 56.9864669,65.3886352 30.9559715,57.0517301 L30.9559715,46.466806 Z" id="Rectangle-3" fill-opacity="0.160000667" fill="#000000" sketch:type="MSShapeGroup"></path>
            <path d="M30.8713704,49.3927636 C30.8713704,47.2014242 32.6482879,45.4246511 34.8402267,45.4246511 C34.8402267,45.4246511 52.6100416,47.6539278 60.6375987,47.6539278 C69.3781882,47.6539278 85.1446666,45.4246511 85.1446666,45.4246511 C87.3366534,45.4246511 89.1135229,47.2012356 89.1135229,49.3927636 L89.1135229,59.9776878 C85.1446659,62.5254473 56.9018658,68.3145929 30.8713704,59.9776878 L30.8713704,49.3927636 Z" id="Rectangle-1" fill="#989898" sketch:type="MSShapeGroup"></path>
        </g>
    </g>
</svg>